<?xml version="1.0" encoding="UTF-8" standalone="no"?>
<!DOCTYPE svg PUBLIC "-//W3C//DTD SVG 1.1//EN" "http://www.w3.org/Graphics/SVG/1.1/DTD/svg11.dtd">
<svg width="100%" height="100%" viewBox="0 0 1500 300" version="1.1" xmlns="http://www.w3.org/2000/svg" xmlns:xlink="http://www.w3.org/1999/xlink" xml:space="preserve" xmlns:serif="http://www.serif.com/" style="fill-rule:evenodd;clip-rule:evenodd;stroke-linejoin:round;stroke-miterlimit:2;">
    <g transform="matrix(1.15086,0,0,1.15086,-113.149,-137.716)">
        <g transform="matrix(0.78046,0,0,0.599379,270.049,95.9596)">
            <rect x="893" y="96" width="522" height="322" style="fill:rgb(125,207,0);"/>
        </g>
        <g transform="matrix(1,0,0,1,-220.019,-2.25931)">
            <g transform="matrix(200,0,0,200,329.419,306.959)">
                <path d="M0.081,-0L0.081,-0.5L0.167,-0.5L0.167,-0.423C0.201,-0.481 0.254,-0.51 0.326,-0.51C0.383,-0.51 0.428,-0.492 0.463,-0.455C0.498,-0.418 0.515,-0.369 0.515,-0.308L0.515,-0L0.43,-0L0.43,-0.295C0.43,-0.337 0.419,-0.37 0.398,-0.395C0.377,-0.419 0.348,-0.431 0.312,-0.431C0.271,-0.431 0.236,-0.415 0.209,-0.382C0.181,-0.349 0.167,-0.305 0.167,-0.248L0.167,-0L0.081,-0Z" style="fill:rgb(54,54,54);fill-rule:nonzero;"/>
            </g>
            <g transform="matrix(200,0,0,200,447.219,306.959)">
                <path d="M0.294,0.01C0.221,0.01 0.161,-0.015 0.114,-0.064C0.066,-0.113 0.042,-0.175 0.042,-0.25C0.042,-0.325 0.065,-0.388 0.112,-0.437C0.158,-0.486 0.219,-0.51 0.296,-0.51C0.373,-0.51 0.434,-0.483 0.478,-0.428C0.522,-0.373 0.541,-0.306 0.536,-0.227L0.129,-0.227C0.13,-0.182 0.147,-0.144 0.179,-0.114C0.211,-0.083 0.25,-0.068 0.295,-0.068C0.363,-0.068 0.411,-0.096 0.44,-0.152L0.528,-0.152C0.515,-0.105 0.488,-0.067 0.447,-0.036C0.406,-0.005 0.355,0.01 0.294,0.01ZM0.392,-0.398C0.365,-0.422 0.332,-0.434 0.293,-0.434C0.254,-0.434 0.22,-0.422 0.19,-0.399C0.159,-0.376 0.14,-0.341 0.133,-0.295L0.445,-0.295C0.437,-0.34 0.419,-0.375 0.392,-0.398Z" style="fill:rgb(54,54,54);fill-rule:nonzero;"/>
            </g>
            <g transform="matrix(200,0,0,200,559.219,306.959)">
                <path d="M0.417,-0L0.265,-0.189L0.113,-0L0.006,-0L0.211,-0.253L0.023,-0.5L0.127,-0.5L0.265,-0.319L0.402,-0.5L0.507,-0.5L0.318,-0.253L0.523,-0L0.417,-0Z" style="fill:rgb(54,54,54);fill-rule:nonzero;"/>
            </g>
            <g transform="matrix(200,0,0,200,665.219,306.959)">
                <path d="M0.275,0.005C0.229,0.005 0.192,-0.008 0.164,-0.034C0.136,-0.06 0.122,-0.098 0.122,-0.148L0.122,-0.421L0.016,-0.421L0.016,-0.5L0.122,-0.5L0.122,-0.639L0.208,-0.639L0.208,-0.5L0.352,-0.5L0.352,-0.421L0.208,-0.421L0.208,-0.159C0.208,-0.128 0.215,-0.106 0.228,-0.093C0.241,-0.08 0.262,-0.074 0.291,-0.074C0.316,-0.074 0.337,-0.077 0.352,-0.084L0.352,-0.007C0.328,0.001 0.302,0.005 0.275,0.005Z" style="fill:rgb(54,54,54);fill-rule:nonzero;"/>
            </g>
            <g transform="matrix(200,0,0,200,741.419,306.959)">
                <path d="M0.242,0.01C0.186,0.01 0.139,-0.004 0.102,-0.031C0.064,-0.058 0.043,-0.096 0.039,-0.145L0.127,-0.145C0.132,-0.117 0.146,-0.096 0.168,-0.083C0.189,-0.07 0.214,-0.063 0.243,-0.063C0.272,-0.063 0.295,-0.069 0.313,-0.08C0.33,-0.091 0.339,-0.108 0.339,-0.129C0.339,-0.149 0.333,-0.165 0.32,-0.178C0.307,-0.191 0.285,-0.201 0.256,-0.209L0.184,-0.228C0.098,-0.251 0.055,-0.3 0.055,-0.375C0.055,-0.416 0.071,-0.448 0.104,-0.473C0.136,-0.498 0.177,-0.51 0.228,-0.51C0.279,-0.51 0.321,-0.497 0.355,-0.47C0.388,-0.443 0.406,-0.408 0.41,-0.367L0.324,-0.367C0.317,-0.389 0.306,-0.406 0.289,-0.419C0.272,-0.432 0.251,-0.438 0.228,-0.438C0.203,-0.438 0.183,-0.432 0.167,-0.421C0.15,-0.41 0.142,-0.395 0.142,-0.376C0.142,-0.358 0.148,-0.343 0.16,-0.332C0.172,-0.321 0.191,-0.311 0.218,-0.304L0.298,-0.283C0.383,-0.262 0.426,-0.212 0.426,-0.135C0.426,-0.087 0.409,-0.051 0.375,-0.027C0.341,-0.002 0.297,0.01 0.242,0.01Z" style="fill:rgb(54,54,54);fill-rule:nonzero;"/>
            </g>
            <g transform="matrix(200,0,0,200,834.819,306.959)">
                <rect x="0.081" y="-0.75" width="0.086" height="0.75" style="fill:rgb(54,54,54);fill-rule:nonzero;"/>
            </g>
            <g transform="matrix(200,0,0,200,884.619,306.959)">
                <path d="M0.168,-0.651C0.157,-0.64 0.142,-0.634 0.125,-0.634C0.108,-0.634 0.093,-0.64 0.081,-0.652C0.069,-0.663 0.063,-0.678 0.063,-0.695C0.063,-0.712 0.069,-0.726 0.081,-0.738C0.093,-0.75 0.108,-0.756 0.125,-0.756C0.142,-0.756 0.157,-0.75 0.168,-0.738C0.179,-0.726 0.185,-0.712 0.185,-0.695C0.185,-0.678 0.179,-0.663 0.168,-0.651ZM0.081,-0L0.081,-0.5L0.167,-0.5L0.167,-0L0.081,-0Z" style="fill:rgb(54,54,54);fill-rule:nonzero;"/>
            </g>
            <g transform="matrix(200,0,0,200,934.419,306.959)">
                <path d="M0.287,0.01C0.218,0.01 0.16,-0.015 0.113,-0.066C0.066,-0.117 0.042,-0.178 0.042,-0.25C0.042,-0.322 0.066,-0.383 0.113,-0.434C0.16,-0.485 0.218,-0.51 0.287,-0.51C0.324,-0.51 0.358,-0.502 0.39,-0.486C0.421,-0.469 0.446,-0.448 0.463,-0.423L0.463,-0.75L0.549,-0.75L0.549,-0L0.463,-0L0.463,-0.077C0.446,-0.052 0.421,-0.031 0.39,-0.015C0.358,0.002 0.324,0.01 0.287,0.01ZM0.3,-0.069C0.349,-0.069 0.39,-0.086 0.422,-0.121C0.454,-0.156 0.47,-0.199 0.47,-0.25C0.47,-0.301 0.454,-0.344 0.422,-0.379C0.39,-0.414 0.349,-0.431 0.3,-0.431C0.25,-0.431 0.209,-0.414 0.177,-0.379C0.145,-0.344 0.129,-0.301 0.129,-0.25C0.129,-0.199 0.145,-0.156 0.177,-0.121C0.209,-0.086 0.25,-0.069 0.3,-0.069Z" style="fill:rgb(54,54,54);fill-rule:nonzero;"/>
            </g>
            <g transform="matrix(200,0,0,200,1060.42,306.959)">
                <path d="M0.294,0.01C0.221,0.01 0.161,-0.015 0.114,-0.064C0.066,-0.113 0.042,-0.175 0.042,-0.25C0.042,-0.325 0.065,-0.388 0.112,-0.437C0.158,-0.486 0.219,-0.51 0.296,-0.51C0.373,-0.51 0.434,-0.483 0.478,-0.428C0.522,-0.373 0.541,-0.306 0.536,-0.227L0.129,-0.227C0.13,-0.182 0.147,-0.144 0.179,-0.114C0.211,-0.083 0.25,-0.068 0.295,-0.068C0.363,-0.068 0.411,-0.096 0.44,-0.152L0.528,-0.152C0.515,-0.105 0.488,-0.067 0.447,-0.036C0.406,-0.005 0.355,0.01 0.294,0.01ZM0.392,-0.398C0.365,-0.422 0.332,-0.434 0.293,-0.434C0.254,-0.434 0.22,-0.422 0.19,-0.399C0.159,-0.376 0.14,-0.341 0.133,-0.295L0.445,-0.295C0.437,-0.34 0.419,-0.375 0.392,-0.398Z" style="fill:rgb(54,54,54);fill-rule:nonzero;"/>
            </g>
            <g transform="matrix(200,0,0,200,1176.22,306.959)">
                <path d="M0.178,-0.014C0.164,0.001 0.147,0.008 0.126,0.008C0.105,0.008 0.088,0.001 0.074,-0.014C0.059,-0.029 0.052,-0.046 0.052,-0.067C0.052,-0.087 0.059,-0.105 0.074,-0.12C0.089,-0.135 0.106,-0.142 0.126,-0.142C0.146,-0.142 0.163,-0.135 0.178,-0.12C0.193,-0.105 0.2,-0.087 0.2,-0.067C0.2,-0.046 0.193,-0.029 0.178,-0.014Z" style="fill:white;fill-rule:nonzero;"/>
            </g>
            <g transform="matrix(200,0,0,200,1224.62,306.959)">
                <path d="M0.287,0.01C0.218,0.01 0.16,-0.015 0.113,-0.066C0.066,-0.117 0.042,-0.178 0.042,-0.25C0.042,-0.322 0.066,-0.383 0.113,-0.434C0.16,-0.485 0.218,-0.51 0.287,-0.51C0.324,-0.51 0.358,-0.502 0.39,-0.486C0.421,-0.469 0.446,-0.448 0.463,-0.423L0.463,-0.5L0.549,-0.5L0.549,-0L0.463,-0L0.463,-0.077C0.446,-0.052 0.421,-0.031 0.39,-0.015C0.358,0.002 0.324,0.01 0.287,0.01ZM0.3,-0.069C0.349,-0.069 0.39,-0.086 0.422,-0.121C0.454,-0.156 0.47,-0.199 0.47,-0.25C0.47,-0.301 0.454,-0.344 0.422,-0.379C0.39,-0.414 0.349,-0.431 0.3,-0.431C0.25,-0.431 0.209,-0.414 0.177,-0.379C0.145,-0.344 0.129,-0.301 0.129,-0.25C0.129,-0.199 0.145,-0.156 0.177,-0.121C0.209,-0.086 0.25,-0.069 0.3,-0.069Z" style="fill:white;fill-rule:nonzero;"/>
            </g>
            <g transform="matrix(200,0,0,200,1350.62,306.959)">
                <path d="M0.167,0.209L0.081,0.209L0.081,-0.5L0.167,-0.5L0.167,-0.423C0.184,-0.448 0.209,-0.469 0.241,-0.486C0.272,-0.502 0.306,-0.51 0.343,-0.51C0.412,-0.51 0.47,-0.485 0.518,-0.434C0.564,-0.383 0.588,-0.322 0.588,-0.25C0.588,-0.178 0.564,-0.117 0.518,-0.066C0.47,-0.015 0.412,0.01 0.343,0.01C0.306,0.01 0.272,0.002 0.241,-0.015C0.209,-0.031 0.184,-0.052 0.167,-0.077L0.167,0.209ZM0.208,-0.121C0.24,-0.086 0.281,-0.069 0.33,-0.069C0.379,-0.069 0.42,-0.086 0.452,-0.121C0.484,-0.156 0.5,-0.199 0.5,-0.25C0.5,-0.301 0.484,-0.344 0.452,-0.379C0.42,-0.414 0.379,-0.431 0.33,-0.431C0.281,-0.431 0.24,-0.414 0.208,-0.379C0.176,-0.344 0.16,-0.301 0.16,-0.25C0.16,-0.199 0.176,-0.156 0.208,-0.121Z" style="fill:white;fill-rule:nonzero;"/>
            </g>
            <g transform="matrix(200,0,0,200,1476.82,306.959)">
                <path d="M0.167,0.209L0.081,0.209L0.081,-0.5L0.167,-0.5L0.167,-0.423C0.184,-0.448 0.209,-0.469 0.241,-0.486C0.272,-0.502 0.306,-0.51 0.343,-0.51C0.412,-0.51 0.47,-0.485 0.518,-0.434C0.564,-0.383 0.588,-0.322 0.588,-0.25C0.588,-0.178 0.564,-0.117 0.518,-0.066C0.47,-0.015 0.412,0.01 0.343,0.01C0.306,0.01 0.272,0.002 0.241,-0.015C0.209,-0.031 0.184,-0.052 0.167,-0.077L0.167,0.209ZM0.208,-0.121C0.24,-0.086 0.281,-0.069 0.33,-0.069C0.379,-0.069 0.42,-0.086 0.452,-0.121C0.484,-0.156 0.5,-0.199 0.5,-0.25C0.5,-0.301 0.484,-0.344 0.452,-0.379C0.42,-0.414 0.379,-0.431 0.33,-0.431C0.281,-0.431 0.24,-0.414 0.208,-0.379C0.176,-0.344 0.16,-0.301 0.16,-0.25C0.16,-0.199 0.176,-0.156 0.208,-0.121Z" style="fill:white;fill-rule:nonzero;"/>
            </g>
        </g>
    </g>
</svg>
